HIERARCHY
ROOT Hips
{
	OFFSET 0.000000 83.214638 0.000000
	CHANNELS 6 Xposition Yposition Zposition Xrotation Yrotation Zrotation
	JOINT Pelvis
	{
		OFFSET 0.000000 0.000000 0.000000
		CHANNELS 3 Xrotation Yrotation Zrotation
		JOINT LeftUpLeg
		{
			OFFSET 8.479700 -4.795502 -0.379100
			CHANNELS 3 Xrotation Yrotation Zrotation
			JOINT LeftLeg
			{
				OFFSET 0.024144 -32.555107 0.112900
				CHANNELS 3 Xrotation Yrotation Zrotation
				JOINT LeftFoot
				{
					OFFSET -0.024144 -32.638630 -3.012600
					CHANNELS 3 Xrotation Yrotation Zrotation
					JOINT LeftToeBase
					{
						OFFSET 0.970200 -13.225400 11.864200
						CHANNELS 3 Xrotation Yrotation Zrotation
						End Site
						{
							OFFSET 0.000000 12.319262 0.000000
						}
					}
					JOINT LFootTongue
					{
						OFFSET 1.142400 -1.059800 6.665200
						CHANNELS 3 Xrotation Yrotation Zrotation
						End Site
						{
							OFFSET 0.000000 12.319262 0.000000
						}
					}
				}
				JOINT LeftPantLeg
				{
					OFFSET 0.918482 -16.533964 -2.284700
					CHANNELS 3 Xrotation Yrotation Zrotation
					End Site
					{
						OFFSET 0.350399 24.744368 0.000000
					}
				}
			}
		}
		JOINT RightUpLeg
		{
			OFFSET -8.479700 -4.795502 -0.379100
			CHANNELS 3 Xrotation Yrotation Zrotation
			JOINT RightLeg
			{
				OFFSET -0.023144 -32.555092 0.112900
				CHANNELS 3 Xrotation Yrotation Zrotation
				JOINT RightFoot
				{
					OFFSET 0.023144 -32.638641 -3.012700
					CHANNELS 3 Xrotation Yrotation Zrotation
					JOINT RightToeBase
					{
						OFFSET -0.970200 -13.225400 11.864200
						CHANNELS 3 Xrotation Yrotation Zrotation
						End Site
						{
							OFFSET 0.000000 12.319244 0.000000
						}
					}
					JOINT RFootTongue
					{
						OFFSET -1.142200 -1.059800 6.665200
						CHANNELS 3 Xrotation Yrotation Zrotation
						End Site
						{
							OFFSET 0.000000 12.319243 0.000000
						}
					}
				}
				JOINT RightPantLeg
				{
					OFFSET -0.919482 -16.533978 -2.284800
					CHANNELS 3 Xrotation Yrotation Zrotation
					End Site
					{
						OFFSET -0.350400 24.744419 0.000000
					}
				}
			}
		}
	}
	JOINT Spine
	{
		OFFSET 0.000000 7.722000 1.166200
		CHANNELS 3 Xrotation Yrotation Zrotation
		JOINT Spine1
		{
			OFFSET 0.000000 12.024101 0.248800
			CHANNELS 3 Xrotation Yrotation Zrotation
			JOINT Spine2
			{
				OFFSET 0.000000 11.502998 -0.491200
				CHANNELS 3 Xrotation Yrotation Zrotation
				JOINT Neck
				{
					OFFSET 0.000000 18.430702 -3.123100
					CHANNELS 3 Xrotation Yrotation Zrotation
					JOINT Head
					{
						OFFSET 0.000000 9.051102 1.034000
						CHANNELS 3 Xrotation Yrotation Zrotation
						JOINT HairB
						{
							OFFSET 0.208400 24.786102 24.822300
							CHANNELS 3 Xrotation Yrotation Zrotation
							End Site
							{
								OFFSET 0.000000 32.263779 0.000000
							}
						}
						JOINT HairA
						{
							OFFSET -7.081100 24.428299 23.196600
							CHANNELS 3 Xrotation Yrotation Zrotation
							End Site
							{
								OFFSET 0.000000 32.263779 0.000000
							}
						}
						JOINT Hat
						{
							OFFSET 16.728800 15.048294 -15.439601
							CHANNELS 3 Xrotation Yrotation Zrotation
							End Site
							{
								OFFSET 0.000000 32.263779 0.000000
							}
						}
					}
				}
				JOINT LeftShoulder
				{
					OFFSET 6.197800 13.665199 -4.064700
					CHANNELS 3 Xrotation Yrotation Zrotation
					JOINT LeftArm
					{
						OFFSET 7.778100 -0.187103 -1.709300
						CHANNELS 3 Xrotation Yrotation Zrotation
						JOINT LeftForeArm
						{
							OFFSET 22.049376 0.000000 0.000000
							CHANNELS 3 Xrotation Yrotation Zrotation
							JOINT LeftHand
							{
								OFFSET 23.009392 0.000000 0.000000
								CHANNELS 3 Xrotation Yrotation Zrotation
								JOINT LeftHandThumb1
								{
									OFFSET 3.507191 -2.063065 3.133727
									CHANNELS 3 Xrotation Yrotation Zrotation
									JOINT LeftHandThumb2
									{
										OFFSET 3.101337 -1.790558 1.790558
										CHANNELS 3 Xrotation Yrotation Zrotation
										JOINT LeftHandThumb3
										{
											OFFSET 3.058640 -1.765907 1.765906
											CHANNELS 3 Xrotation Yrotation Zrotation
											End Site
											{
												OFFSET -0.415260 3.926476 -0.049563
											}
										}
									}
								}
								JOINT LeftHandIndex1
								{
									OFFSET 11.334419 -0.901459 3.706815
									CHANNELS 3 Xrotation Yrotation Zrotation
									JOINT LeftHandIndex2
									{
										OFFSET 3.283112 0.000000 0.000000
										CHANNELS 3 Xrotation Yrotation Zrotation
										JOINT LeftHandIndex3
										{
											OFFSET 3.323853 0.000000 0.000000
											CHANNELS 3 Xrotation Yrotation Zrotation
											End Site
											{
												OFFSET -1.135597 3.097809 0.402452
											}
										}
									}
								}
								JOINT LeftHandMiddle1
								{
									OFFSET 11.335861 0.000000 0.000000
									CHANNELS 3 Xrotation Yrotation Zrotation
									JOINT LeftHandMiddle2
									{
										OFFSET 3.410492 0.000000 0.000000
										CHANNELS 3 Xrotation Yrotation Zrotation
										JOINT LeftHandMiddle3
										{
											OFFSET 3.312172 0.000000 0.000000
											CHANNELS 3 Xrotation Yrotation Zrotation
											End Site
											{
												OFFSET -1.150200 3.080154 0.400270
											}
										}
									}
								}
								JOINT LeftHandRing1
								{
									OFFSET 11.514786 -0.013176 -3.003090
									CHANNELS 3 Xrotation Yrotation Zrotation
									JOINT LeftHandRing2
									{
										OFFSET 3.053307 0.000000 0.000000
										CHANNELS 3 Xrotation Yrotation Zrotation
										JOINT LeftHandRing3
										{
											OFFSET 3.295807 0.000000 0.000000
											CHANNELS 3 Xrotation Yrotation Zrotation
											End Site
											{
												OFFSET -1.281006 3.013344 0.375733
											}
										}
									}
								}
								JOINT LeftHandPinky1
								{
									OFFSET 10.518692 -0.960396 -5.730441
									CHANNELS 3 Xrotation Yrotation Zrotation
									JOINT LeftHandPinky2
									{
										OFFSET 2.861649 0.000000 0.000000
										CHANNELS 3 Xrotation Yrotation Zrotation
										JOINT LeftHandPinky3
										{
											OFFSET 2.863380 0.000000 0.000000
											CHANNELS 3 Xrotation Yrotation Zrotation
											End Site
											{
												OFFSET -0.843597 2.711159 0.369971
											}
										}
									}
								}
							}
							JOINT LSleeve
							{
								OFFSET 6.676277 -0.344902 -1.011730
								CHANNELS 3 Xrotation Yrotation Zrotation
								End Site
								{
									OFFSET 0.000000 14.885353 0.000000
								}
							}
						}
					}
				}
				JOINT RightShoulder
				{
					OFFSET -6.197800 13.665199 -4.064700
					CHANNELS 3 Xrotation Yrotation Zrotation
					JOINT RightArm
					{
						OFFSET -7.778100 -0.187103 -1.709300
						CHANNELS 3 Xrotation Yrotation Zrotation
						JOINT RightForeArm
						{
							OFFSET -22.049376 0.000000 0.000000
							CHANNELS 3 Xrotation Yrotation Zrotation
							JOINT RightHand
							{
								OFFSET -23.009392 0.000000 0.000000
								CHANNELS 3 Xrotation Yrotation Zrotation
								JOINT RightHandThumb1
								{
									OFFSET -3.507191 -2.063065 3.133727
									CHANNELS 3 Xrotation Yrotation Zrotation
									JOINT RightHandThumb2
									{
										OFFSET -3.101337 -1.790558 1.790558
										CHANNELS 3 Xrotation Yrotation Zrotation
										JOINT RightHandThumb3
										{
											OFFSET -3.058640 -1.765907 1.765906
											CHANNELS 3 Xrotation Yrotation Zrotation
											End Site
											{
												OFFSET 0.415260 3.926476 -0.049563
											}
										}
									}
								}
								JOINT RightHandIndex1
								{
									OFFSET -11.334419 -0.901459 3.706815
									CHANNELS 3 Xrotation Yrotation Zrotation
									JOINT RightHandIndex2
									{
										OFFSET -3.283112 0.000000 0.000000
										CHANNELS 3 Xrotation Yrotation Zrotation
										JOINT RightHandIndex3
										{
											OFFSET -3.323853 0.000000 0.000000
											CHANNELS 3 Xrotation Yrotation Zrotation
											End Site
											{
												OFFSET 1.135597 3.097809 0.402452
											}
										}
									}
								}
								JOINT RightHandMiddle1
								{
									OFFSET -11.335861 0.000000 0.000000
									CHANNELS 3 Xrotation Yrotation Zrotation
									JOINT RightHandMiddle2
									{
										OFFSET -3.410492 0.000000 0.000000
										CHANNELS 3 Xrotation Yrotation Zrotation
										JOINT RightHandMiddle3
										{
											OFFSET -3.312172 0.000000 0.000000
											CHANNELS 3 Xrotation Yrotation Zrotation
											End Site
											{
												OFFSET 1.150200 3.080154 0.400270
											}
										}
									}
								}
								JOINT RightHandRing1
								{
									OFFSET -11.514786 -0.013176 -3.003090
									CHANNELS 3 Xrotation Yrotation Zrotation
									JOINT RightHandRing2
									{
										OFFSET -3.053307 0.000000 0.000000
										CHANNELS 3 Xrotation Yrotation Zrotation
										JOINT RightHandRing3
										{
											OFFSET -3.295807 0.000000 0.000000
											CHANNELS 3 Xrotation Yrotation Zrotation
											End Site
											{
												OFFSET 1.281006 3.013344 0.375733
											}
										}
									}
								}
								JOINT RightHandPinky1
								{
									OFFSET -10.518692 -0.960396 -5.730441
									CHANNELS 3 Xrotation Yrotation Zrotation
									JOINT RightHandPinky2
									{
										OFFSET -2.861649 0.000000 0.000000
										CHANNELS 3 Xrotation Yrotation Zrotation
										JOINT RightHandPinky3
										{
											OFFSET -2.863380 0.000000 0.000000
											CHANNELS 3 Xrotation Yrotation Zrotation
											End Site
											{
												OFFSET 0.843597 2.711159 0.369971
											}
										}
									}
								}
							}
							JOINT RSleeve
							{
								OFFSET -6.676277 -0.344902 -1.011730
								CHANNELS 3 Xrotation Yrotation Zrotation
								End Site
								{
									OFFSET 0.000000 14.885353 0.000000
								}
							}
						}
					}
				}
				JOINT Backpack
				{
					OFFSET 0.000000 -2.471497 36.677502
					CHANNELS 3 Xrotation Yrotation Zrotation
					End Site
					{
						OFFSET 0.000000 20.427315 0.000000
					}
				}
				JOINT Hood
				{
					OFFSET 0.000000 18.754097 -10.431000
					CHANNELS 3 Xrotation Yrotation Zrotation
					JOINT Hood1
					{
						OFFSET 0.000000 -5.011002 -7.685901
						CHANNELS 3 Xrotation Yrotation Zrotation
						End Site
						{
							OFFSET 0.000000 9.175140 0.000000
						}
					}
				}
				JOINT LHoodieString
				{
					OFFSET 5.250500 16.397697 3.089900
					CHANNELS 3 Xrotation Yrotation Zrotation
					JOINT LHoodieString1
					{
						OFFSET 0.257700 -6.364304 3.694600
						CHANNELS 3 Xrotation Yrotation Zrotation
						JOINT LHoodieString2
						{
							OFFSET 0.000000 -9.643799 2.679100
							CHANNELS 3 Xrotation Yrotation Zrotation
							End Site
							{
								OFFSET 0.000000 10.009018 0.000000
							}
						}
					}
				}
				JOINT RHoodieString
				{
					OFFSET -5.250500 16.397697 3.089900
					CHANNELS 3 Xrotation Yrotation Zrotation
					JOINT RHoodieString1
					{
						OFFSET -0.257700 -6.364304 3.694600
						CHANNELS 3 Xrotation Yrotation Zrotation
						JOINT RHoodieString2
						{
							OFFSET 0.000000 -9.643799 2.679100
							CHANNELS 3 Xrotation Yrotation Zrotation
							End Site
							{
								OFFSET 0.000000 10.009018 0.000000
							}
						}
					}
				}
			}
			JOINT LBackpack_Strap
			{
				OFFSET 15.223200 -7.719803 -6.610900
				CHANNELS 3 Xrotation Yrotation Zrotation
				End Site
				{
					OFFSET 0.000000 16.040596 0.000000
				}
			}
			JOINT RBackpack_Strap
			{
				OFFSET -15.223000 -7.719803 -6.610900
				CHANNELS 3 Xrotation Yrotation Zrotation
				End Site
				{
					OFFSET 0.000000 16.040596 0.000000
				}
			}
		}
	}
	JOINT BoyFacialAnim_Joint
	{
		OFFSET 1.000000 -82.208099 -1.550900
		CHANNELS 3 Xrotation Yrotation Zrotation
		End Site
		{
			OFFSET 0.000000 30.012791 0.000000
		}
	}
}
MOTION
Frames: 4
Frame Time: 0.016667
1.479069 78.210945 -3.196449 2.059523 -10.391200 -1.922393 -0.000000 -0.000001 0.000000 -35.362065 2.475349 7.722410 30.822888 0.598737 2.729556 2.514833 0.166815 -4.335478 -0.000000 0.000000 -0.000000 -0.000000 0.000000 -0.000000 -0.000000 -0.000000 -0.000000 -15.716626 -10.958034 -12.494403 34.325338 -10.561819 2.750130 -16.541907 -2.286306 11.679468 0.000000 0.000005 0.000000 0.000000 0.000005 0.000000 0.000001 -0.000002 0.000001 21.561181 5.788761 1.500186 2.971771 1.798109 -0.052723 2.970858 1.873018 -0.065765 -3.972163 15.157914 2.233333 6.503278 46.829064 -20.357746 0.000000 -0.000001 -0.000000 0.000000 -0.000001 -0.000000 0.000000 -0.000001 -0.000000 1.350341 -32.914016 3.985059 -22.769902 -14.531412 -67.625922 0.000008 -44.195705 -9.360781 -35.824421 -9.101373 -6.762476 -7.471942 1.860685 -7.166923 30.987021 27.310517 -4.510890 -0.000003 -0.000002 -0.000001 -4.686311 11.374179 -75.574179 -0.816399 3.074011 -46.874629 -0.000001 0.000000 -0.000007 1.616599 16.582666 -84.688793 0.018013 0.022028 -72.884867 -0.000002 0.000003 0.000002 -7.765785 20.752821 -77.737798 0.013357 0.983457 -51.003611 -0.000000 -0.000001 -0.000001 -13.924180 3.850347 -44.469811 0.013456 0.024883 -63.895149 -0.000001 -0.000001 -0.000002 -0.000001 -0.000001 -0.000000 9.555407 22.112647 -11.863566 -43.977846 10.617614 77.772980 -0.000003 50.389021 2.241422 -28.429773 16.642789 6.785462 9.347163 2.810553 -11.364518 16.169091 -43.265997 15.843566 0.000002 0.000003 -0.000002 17.076781 -0.396540 31.924338 -0.204408 -0.284227 112.811557 -0.000000 -0.000001 0.000003 9.205478 -5.035913 102.738100 0.014976 -0.019206 61.018506 0.000001 0.000001 0.000002 5.569153 -8.935223 107.329101 0.548002 -0.005787 41.263714 -0.000000 0.000002 -0.000001 6.511233 -17.148206 98.228017 0.007405 -0.015749 43.845744 0.000001 0.000002 -0.000001 0.000001 -0.000003 -0.000001 0.000001 -0.000000 -0.000000 0.000001 -0.000000 -0.000000 0.000001 -0.000000 -0.000000 0.000001 -0.000000 -0.000000 0.000001 -0.000000 -0.000000 0.000001 -0.000000 0.000000 0.000001 -0.000000 -0.000000 0.000001 -0.000000 -0.000000 0.000001 -0.000000 0.000000 -0.000000 -0.000000 -0.000000 -0.000000 -0.000000 -0.000000 -0.000000 -0.000001 0.000000 
1.557146 78.230133 -2.948090 2.138135 -10.000938 -1.909021 -0.000000 0.000001 -0.000000 -35.389850 2.464758 7.460838 31.012436 0.367189 2.771602 2.256045 0.173239 -4.195257 -0.000000 0.000000 -0.000000 -0.000000 0.000000 -0.000000 0.000000 -0.000000 -0.000001 -15.307844 -11.019901 -12.555895 33.966725 -10.887076 2.764540 -16.525124 -2.351596 11.934010 0.000000 0.000001 0.000000 0.000000 0.000001 0.000000 -0.000001 -0.000003 0.000002 21.516380 5.781926 1.253205 2.951614 1.865109 -0.160994 2.950959 1.939448 -0.175155 -4.099839 15.090193 2.372696 6.098619 46.772903 -19.938092 -0.000000 0.000001 -0.000000 -0.000000 0.000001 -0.000000 -0.000000 0.000001 -0.000000 1.306150 -33.191297 4.056578 -22.439089 -14.543443 -67.584783 0.000029 -44.463678 -8.793754 -35.436654 -8.587745 -7.126239 -7.471941 1.860686 -7.166928 30.987011 27.310517 -4.510888 0.000003 0.000001 0.000002 -4.686377 11.374067 -75.571153 -0.816397 3.074010 -46.874629 0.000000 0.000003 -0.000005 1.616606 16.582668 -84.688820 0.018009 0.022042 -72.884853 -0.000002 0.000001 0.000000 -7.759285 20.770715 -77.712745 0.013338 0.983457 -51.003604 -0.000001 0.000002 -0.000002 -14.013714 3.966983 -44.412625 0.013509 0.024923 -64.018919 0.000002 -0.000001 -0.000000 0.000002 0.000003 0.000002 9.474259 21.562347 -11.639588 -44.239064 10.875450 78.236798 0.000052 50.076396 2.034991 -28.523169 16.871180 6.756815 9.347161 2.810555 -11.364522 16.169090 -43.265997 15.843571 0.000001 0.000001 -0.000000 17.076781 -0.396538 31.924335 -0.204409 -0.284227 112.811557 -0.000001 -0.000001 0.000005 9.205478 -5.035909 102.738100 0.014981 -0.019207 61.018506 -0.000000 0.000000 0.000002 5.569150 -8.935223 107.329101 0.548006 -0.005790 41.263714 -0.000001 0.000000 0.000000 6.511228 -17.148209 98.228017 0.007405 -0.015746 43.845740 0.000001 0.000002 -0.000001 -0.000001 -0.000002 -0.000001 -0.000003 -0.000000 0.000000 -0.000003 -0.000000 0.000000 -0.000003 -0.000000 0.000000 -0.000003 -0.000000 0.000000 -0.000003 -0.000000 0.000000 -0.000003 -0.000000 -0.000000 -0.000003 -0.000000 0.000000 -0.000003 -0.000000 0.000000 -0.000003 -0.000000 -0.000000 -0.000000 -0.000000 -0.000000 -0.000000 -0.000000 -0.000000 -0.000000 0.000001 -0.000000 
1.629800 78.245308 -2.701062 2.217328 -9.635314 -1.880154 0.000000 0.000000 -0.000000 -35.413254 2.440337 7.205399 31.209330 0.171108 2.792350 1.991611 0.178869 -4.058813 0.000000 0.000000 -0.000000 0.000000 0.000000 -0.000000 -0.000000 0.000000 0.000000 -14.929778 -11.107094 -12.626330 33.630158 -11.166132 2.749958 -16.519907 -2.416864 12.183755 0.000000 0.000001 -0.000000 0.000000 0.000001 -0.000000 0.000003 -0.000001 0.000001 21.467498 5.755809 0.999700 2.933347 1.930219 -0.273806 2.932949 2.004093 -0.288580 -4.241901 15.007608 2.532611 5.637719 46.665977 -19.447734 0.000001 -0.000001 -0.000001 0.000001 -0.000001 -0.000001 0.000001 -0.000001 -0.000001 1.253906 -33.456835 4.134839 -22.076208 -14.578427 -67.548126 0.000017 -44.717030 -8.228646 -35.111574 -8.142440 -7.495887 -7.471938 1.860685 -7.166922 30.987014 27.310520 -4.510887 -0.000004 0.000002 0.000004 -4.686449 11.373955 -75.568093 -0.816398 3.074009 -46.874629 -0.000003 -0.000001 -0.000002 1.616615 16.582671 -84.688813 0.018008 0.022034 -72.884880 -0.000001 0.000001 0.000004 -7.752803 20.788985 -77.688149 0.013347 0.983443 -51.003604 -0.000001 -0.000002 -0.000001 -14.104049 4.086270 -44.357612 0.013564 0.024920 -64.143550 -0.000003 -0.000003 -0.000001 -0.000000 -0.000001 -0.000001 9.408125 21.067910 -11.442654 -44.479872 11.089955 78.693403 0.000046 49.791014 1.848473 -28.571614 17.092991 6.703838 9.347162 2.810554 -11.364520 16.169090 -43.265997 15.843570 0.000001 0.000003 -0.000002 17.076783 -0.396539 31.924338 -0.204409 -0.284231 112.811557 -0.000000 0.000000 0.000005 9.205479 -5.035910 102.738100 0.014979 -0.019206 61.018506 0.000001 0.000000 -0.000000 5.569154 -8.935220 107.329108 0.548003 -0.005788 41.263710 -0.000000 0.000001 0.000001 6.511231 -17.148209 98.228017 0.007411 -0.015748 43.845744 -0.000002 -0.000004 -0.000001 0.000001 -0.000002 -0.000004 -0.000002 0.000000 -0.000000 -0.000002 0.000000 -0.000000 -0.000002 0.000000 -0.000000 -0.000002 0.000000 -0.000000 -0.000002 0.000000 -0.000000 -0.000002 -0.000000 -0.000000 -0.000002 0.000000 -0.000000 -0.000002 0.000000 -0.000000 -0.000002 -0.000000 -0.000000 0.000001 0.000000 -0.000000 0.000001 0.000000 -0.000000 0.000000 0.000000 -0.000000 
1.697427 78.255920 -2.456295 2.297079 -9.292804 -1.839174 -0.000000 0.000000 0.000000 -35.443204 2.458598 6.955582 31.416507 -0.039526 2.827956 1.721205 0.183251 -3.928504 -0.000000 -0.000000 0.000000 -0.000000 -0.000000 0.000000 -0.000000 -0.000000 0.000000 -14.563527 -11.132968 -12.699804 33.327833 -11.474171 2.757933 -16.526862 -2.482336 12.429154 0.000000 -0.000000 0.000000 0.000000 -0.000000 0.000000 0.000002 -0.000002 0.000003 21.414509 5.724963 0.745700 2.917129 1.985256 -0.390848 2.916586 2.058882 -0.406592 -4.390912 14.896789 2.706928 5.129825 46.544987 -18.898493 0.000001 0.000001 -0.000000 0.000001 0.000001 -0.000000 0.000001 0.000001 -0.000000 1.216775 -33.714490 4.232025 -21.704820 -14.643564 -67.511434 0.000025 -44.942494 -7.663717 -34.862887 -7.769647 -7.870582 -7.471942 1.860684 -7.166933 30.987014 27.310511 -4.510896 -0.000004 -0.000003 0.000003 -4.686528 11.373834 -75.565026 -0.816399 3.074010 -46.874635 0.000000 0.000002 -0.000007 1.616610 16.582665 -84.688827 0.018010 0.022038 -72.884867 0.000001 0.000000 0.000000 -7.746327 20.807560 -77.664073 0.013342 0.983453 -51.003608 -0.000000 0.000002 -0.000002 -14.195116 4.208191 -44.304797 0.013628 0.024966 -64.268911 -0.000000 -0.000001 0.000001 -0.000001 0.000002 0.000004 9.352104 20.644018 -11.270546 -44.692151 11.251932 79.128513 0.000004 49.534192 1.683194 -28.576063 17.304004 6.626707 9.347162 2.810553 -11.364520 16.169095 -43.266001 15.843573 0.000001 -0.000000 0.000002 17.076781 -0.396540 31.924345 -0.204408 -0.284229 112.811557 -0.000000 0.000001 0.000005 9.205478 -5.035913 102.738100 0.014978 -0.019204 61.018506 -0.000000 0.000000 -0.000000 5.569151 -8.935224 107.329108 0.548004 -0.005791 41.263714 0.000000 0.000002 0.000001 6.511230 -17.148208 98.228017 0.007401 -0.015746 43.845747 -0.000000 0.000003 -0.000001 0.000001 0.000001 -0.000003 -0.000003 -0.000000 0.000000 -0.000003 -0.000000 0.000000 -0.000003 -0.000000 0.000000 -0.000003 -0.000000 0.000000 -0.000003 -0.000000 -0.000000 -0.000003 -0.000000 -0.000000 -0.000003 -0.000000 0.000000 -0.000003 -0.000000 -0.000000 -0.000003 -0.000000 -0.000000 -0.000002 0.000000 -0.000000 -0.000002 0.000000 -0.000000 -0.000000 0.000000 0.000000 
